<?xml version="1.0" encoding="UTF-8"?>
<!-- Created with Inkscape (http://www.inkscape.org/) -->
<svg width="62" height="62" version="1.1" viewBox="0 0 62 62" xmlns="http://www.w3.org/2000/svg" xmlns:xlink="http://www.w3.org/1999/xlink">
 <defs>
  <symbol id="DownArrow">
   <title>Down Arrow</title>
   <path d="m36 63-22-22v-15l16 16v-32h12v32l16-16v15z"/>
  </symbol>
  <clipPath id="clipPath3183">
   <path d="m27.48 9.9838-13.483 0.019471v52.995h44.011v-52.995h-12.159c-0.0071 0.1768-0.0076 0.34523 0 0.51337v0.01947c1.291 0.16268 2.3703 1.4828 1.9324 3.746-0.05781 0.29821-0.14618 0.58716-0.23879 0.87466 0.22156 2.3786 0.3982 5.188-0.19543 7.492-0.06337 0.24417-0.17253 0.4716-0.28226 0.7036v0.01947c-0.0189 0.11858-0.03891 0.24359-0.06559 0.36129-0.05002 0.22675-0.17664 0.41572-0.28226 0.62747-0.14385 0.28915-0.14885 0.73223-0.41254 0.91273-0.34729 1.1459-0.92247 2.3342-2.0192 3.1945-0.01556 0.01266-0.02668 0.02629-0.04336 0.03797-0.0478 0.07302-0.25402 0.31047-0.56451 0.7036-0.1045 0.7662-0.228 1.529-0.26058 2.3008-0.0013 0.28915-0.04224 0.56983-0.10894 0.85568 0.04224-0.02823 0.08782-0.04673 0.13029-0.07594 0.03002-0.02045 0.07782-0.05549 0.10894-0.07594 0.0956 0.09736 0.24913 0.17222 0.28225 0.30424 0.02223 0.08957-0.11917 0.15324-0.17376 0.22821-0.21578 0.29714-0.43022 0.58609-0.65133 0.87466 0.0089 0.17203 0.03224 0.36198 0.04335 0.49438 0.0037 0.03894 0.03002 0.07496 0.02223 0.1141-0.0289 0.12637-0.06781 0.25654-0.10894 0.38028 0.0047 0.23512-7.78e-4 0.46907 0 0.7036 0.15141-0.03894 0.29971-0.09736 0.45601-0.09541 0.39498 0.0048 0.39498 0.39936 0 0.39936-0.1045 0-0.06003-0.0097-0.21711 0.01947-0.04447 0.0058-0.08671-0.0073-0.13029 0.01947-0.0378 0.0097-0.07226 0.02531-0.10894 0.03797-0.0016 0.20474 6e-3 0.40374 0 0.60848-0.0083 0.28282-0.02446 0.57227-0.04335 0.85568-0.0067 0.10758-0.0289 0.21633-0.04336 0.32323-0.01223 0.17008-0.03891 0.34299-0.04335 0.51337-0.0019 0.07789 1.22e-4 0.07983 0 0.13309 0.05225-0.01752 0.11261-0.05549 0.13029-0.01947 0.02446 0.04965 0.03002 0.09444 0.04336 0.13309 0.05114 0.14448 0.03557 0.20844-0.02223 0.24719l-0.02223 0.01947c-0.01668 0.01752-0.05003 0.03602-0.08671 0.03797-4.11e-4 0.03408-0.01779 0.14127-0.02223 0.20912-0.0047 0.07886-0.01055 0.16074-0.02223 0.30424 0.07004-0.0085 0.11795 0.01168 0.08671 0.13309-0.01668 0.06523-0.07448 0.08762-0.10894 0.13309-0.01223 0.09346-0.02668 0.19179-0.04335 0.28526 0.0063 0.0025 0.01556-0.0031 0.02223 0 0.08893 0.04771 0.11628 0.16541 0.17376 0.24719-0.09783 0.06231-0.17842 0.16152-0.28225 0.20912 0.17653 0.04186 0.1981 0.25751-0.06559 0.38028-0.0066 0.0031 7e-3 0.01558 0 0.01947-0.03113 0.19832-0.10672 0.36012-0.19543 0.4754 0.0029 0.0052-0.0025 0.01363 0 0.01947 0.06559 0.13348 0.03335 0.22013-0.08671 0.24719-0.0025 0.03018-0.05003 0.04576-0.08671 0.03797 0.09783 0.30823 0.0856 0.34153-0.04336 0.38028 0.04002 0.07594 0.0095 0.18459-0.10894 0.30424-0.03891 0.03992-0.07559 0.08567-0.10894 0.1141 0.15397 0.11118 0.14719 0.30424-0.15197 0.30424h-11.725c-0.3703-1.9e-5 -0.41477-0.37444-0.08671-0.41834-0.02112 6.13e-4 -0.05892 0.0035-0.06559 0-0.06781-0.04479-0.10894-0.10184-0.17376-0.15207 0.0038-0.12861-0.01223-0.09911 0-0.17115 0.0019-0.01168-0.0013-0.02629 0-0.03797v-0.03797c-0.01667 0.0847 0.07226-0.11654 0.08671-0.15217 0.0033-0.02337 0.0189-0.02531 0.02223-0.03797 0.0051-0.02629-0.0075-0.04186 0.02223-0.05744-0.02112-0.0701 0.02779-0.12978 0.04336-0.19014-0.0039-0.04771-0.01779-0.12364-0.02223-0.17116-0.09783-0.01266-0.18998 0.0045-0.28225-0.01947-0.0667-0.01168-0.13696-0.0078-0.19543-0.03797-0.18943-0.11196-0.24946-0.2654-0.04336-0.45641h0.02223c0.0011-0.08859 0.01112-0.18761 0.04336-0.26618 0.0055-0.01266 0.03113 0.0055 0.04336 0-0.04336-0.03797-0.09005-0.07497-0.13029-0.1141-0.0066-0.0064 0.01223-0.07302 0.02223-0.13309-0.12028-0.16181-0.16242-0.34718-0.10894-0.53245 0.01334 0.01655 0.04558 0.0516 0.06559 0.07594-0.01668-0.03408-0.03002-0.07691-0.04336-0.09541-0.02779-0.01655-0.05892-0.0185-0.08671-0.03797v-0.01947c-0.10894-0.07594-0.22211-0.16911-0.23879-0.26618-0.02223-0.13328 0.0074-0.26481 0-0.39936-0.01445-9e-3 -0.03002-0.01071-0.04336-0.01947-0.0029 0.03505-0.02001 0.06718-0.02223 0.09541-0.02223-0.05063-0.03891-0.09911-0.04336-0.13309-0.37808-0.22967-0.39087-0.24768-0.39087-0.49438 0-0.11488 2.3e-5 -0.22743 0-0.34231 6.7e-5 -0.12209 6.12e-4 -0.23921 0-0.36129-3.89e-4 -0.17028-0.0022-0.34494 0-0.51337-0.0089-0.48406-0.01667-0.9807 0.02223-1.4642 0.0052-0.09736 0.01556-0.1879 0.02223-0.28526 1e-3 -0.0146-0.0063-0.02434 0-0.03797 0.0044-0.01071 0.02557-0.02726 0.02223-0.03797-0.02557-0.07302-0.08449-0.11712-0.10894-0.19014-0.10228-0.29743-0.08671-0.29684-0.08671-0.53245-3.89e-4 -0.46332-0.0031-0.9248 0-1.3881-0.0015-0.74508-0.01105-1.4806 0.02223-2.2248 0.03335-0.20786 0.01223-0.23405 0-0.55143v-0.01947c-0.50715-0.11819-0.86744-0.20893-1.5633-0.36129-0.28114-0.06133-0.10227-0.40043 0.08671-0.7036l0.02223-0.01947c0.01223-0.09152 0.0038-0.14711 0.02223-0.26618 0.11284-0.46858 0.29582-0.91506 0.45601-1.3691-0.07559-0.46138-0.03224-0.80262 0.10894-1.0839-0.04891-0.06133-0.09449-0.11089-0.17376-0.20912-0.24146-0.30074 0.12017-0.73524 0.13029-1.1029 0.04002-0.74615-0.0017-1.4954-0.02223-2.2438-0.36263-0.7149-0.44389-1.4607 0.02223-2.2248 0.0013-0.22149 3.44e-4 -0.44239 0-0.66554-0.0013-1.5275-3.4e-5 -3.0552 0-4.5827-3.4e-5 -0.28536 1.1e-5 -0.57042 0-0.85568-0.26691-0.42234-0.31138-0.69776 0-1.1029-1.2e-5 -1.1155-4.5e-5 -2.231 0-3.3467zm1.737 27.553c-0.0478-0.0013-0.09227 0.0049-0.06559 0.01947 0.09116 0.04673 0.18332 0.08178 0.28225 0.1141-0.03002-0.03018-0.05225-0.06523-0.08671-0.09541-0.02223-0.01947-0.08338-0.037-0.13029-0.03797z" fill="#f00"/>
  </clipPath>
 </defs>
 <g transform="matrix(1.2654 0 0 1.2654 9.6872 9.9375)" fill-opacity=".72691">
  <g transform="matrix(.11234 0 0 .1433 12.415 3.3919)" stroke="#000" style="paint-order:normal">
   <title>Up Arrow</title>
   <path transform="matrix(6.5146 0 0 5.1074 -69.087 10.382)" d="m16.131-0.26953-3.377 4.3066v2.9375l2.4316-3.0996c-0.01479-0.016732-0.0023-0.042969 0.03711-0.042969h0.16797c8e-3 -6.828e-4 0.01412 8.771e-4 0.01953 0.00391h2e-3c0.0071-0.00109 0.01512-5.16e-5 0.02149 0.00195 0.0046 0.00146 0.0092 0.00412 0.01367 0.00586 9.88e-4 4.501e-4 0.0028-1.146e-4 0.0039 0 0.0066-0.00112 0.0042-0.00136 0.01367-0.00195 0.01214 1.026e-4 0.02497 8.33e-5 0.03711 0 0.0093-1.215e-4 0.01804-8.5e-6 0.02734 0 0.0097-1.3e-6 0.0196-1.4e-6 0.0293 0 0.0084 1.7e-6 0.01689 0 0.02539 0h0.0313c-6e-4 -0.00101 0.0028-0.0015 0.0039-0.00195 0.0034-0.00139 0.0063-0.00267 0.0098-0.00391 0.0072-0.00116 0.01625-9.404e-4 0.02344 0.00195 0.0073-5.289e-4 0.01418-2.12e-5 0.02148 0 9e-3 -1.02e-5 0.01834-0.00196 0.02734-0.00195 0.0054 7.5e-6 0.01023 6e-7 0.01563 0h0.12304c8e-4 -1.149e-4 0.0077 1.857e-4 0.0078 0 0.0023-8.6e-4 0.0035-0.00331 0.0059-0.00391 0.0049-0.00126 0.01055-9.851e-4 0.01563-0.00195 0.01266-6.1e-4 0.02447 0.0023 0.03711 0.00195 0.01101-4.838e-4 0.02218-6.13e-5 0.0332 0 0.0061-2.96e-5 0.01148-2.5e-6 0.01758 0 0.0088 7.7e-6 0.01854 2.1e-6 0.02734 0h0.57812c0.01 8e-7 9e-3 -0.00161 0.02344 0.00391 0.0022 8.255e-4 0.0039 0.00261 0.0059 0.00391h2e-3c0.0012-3.769e-4 0.0027-0.00171 0.0039-0.00195 0.0071-0.00146 0.01412-2.12e-5 0.02148 0 0.01626-0.00113 0.0207 0.00343 0.02734 0.00977-5.85e-4 -5.849e-4 4.25e-4 -0.0034 0-0.00391 0.0048 0.00152 9e-3 4e-3 0.01367 0.00586 2e-3 -2.555e-4 0.0038-0.00174 0.0059-0.00195 0.0105-2.879e-4 0.02075 1.931e-4 0.03125 0 0.0087-1.009e-4 0.01864-6.2e-6 0.02734 0 0.01071-4.3e-6 0.02054-5e-7 0.03125 0 0.01405 2e-6 0.02892 1e-6 0.04297 0h0.19725l2e-3 -0.00195c0.0073-0.00809 0.01844-0.00503 0.02734-0.00391 0.0053 0.00138 0.0052 2.351e-4 0.01172 0h0.0039c0.0043-1.43e-5 0.0081-5.958e-4 0.01172 0 0.02596 0.00425 0.03578 0.024133 0.0293 0.039063l2.4258 3.0938v-2.9375zm0.85352 4.1387c-2e-3 0.00202-0.0014 0.010269 0 0.00781 0.0014-0.00242 6.69e-4 -0.00513 2e-3 -0.00781zm-0.16406 0.11328c0.0019 3.322e-4 4e-3 0.0017 0.0059 0.00195h2e-3l2e-3 -0.00195zm-1.6094 1.0566v0.015625c0.0014-0.00321 0.0025-0.00654 0.0039-0.00977-0.0016-0.00206-0.0024-0.00384-0.0039-0.00586z" fill-opacity=".72691" stroke="none" style="paint-order:normal"/>
  </g>
  <g fill="#000000">
   <use transform="matrix(.10515 0 0 .12007 12.912 18.931)" width="100%" height="100%" clip-path="url(#clipPath3183)" xlink:href="#DownArrow"/>
   <g font-family="sans-serif">
    <text x="2.671875" font-size="10.667px" text-align="center" style="line-height:1.55;shape-inside:url(#rect16520);white-space:pre" xml:space="preserve"/>
    <text x="8.4105539" y="19.772598" font-size="11.067px" stroke-width=".50304" style="line-height:1.25" xml:space="preserve"><tspan x="8.4105539" y="19.772598" fill="#000000" fill-opacity=".72691" font-size="11.067px" stroke-width=".50304">A</tspan></text>
    <text x="16.986965" y="19.871559" font-size="11.067px" stroke-width=".50304" style="line-height:1.25" xml:space="preserve"><tspan x="16.986965" y="19.871559" fill="#000000" fill-opacity=".72691" font-size="11.067px" stroke-width=".50304">Z</tspan></text>
   </g>
  </g>
 </g>
</svg>
